<svg width="90" height="94" viewBox="0 0 90 94" fill="none" xmlns="http://www.w3.org/2000/svg">
<path d="M88.8504 58.2951L80.7758 53.633C81.5909 49.2363 81.5909 44.7258 80.7758 40.3291L88.8504 35.667C89.7792 35.1363 90.1962 34.0371 89.8929 33.0138C87.789 26.267 84.2066 20.1646 79.5248 15.0856C78.8046 14.3086 77.6294 14.1191 76.7196 14.6497L68.6449 19.3118C65.2521 16.3933 61.3474 14.138 57.1206 12.6598V3.3546C57.1206 2.29331 56.3814 1.36469 55.3389 1.13727C48.3826 -0.416756 41.2557 -0.34095 34.6405 1.13727C33.598 1.36469 32.8588 2.29331 32.8588 3.3546V12.6788C28.6509 14.1759 24.7463 16.4312 21.3345 19.3307L13.2788 14.6687C12.35 14.138 11.1938 14.3086 10.4735 15.1046C5.79176 20.1646 2.20936 26.267 0.10541 33.0327C-0.216817 34.0561 0.219137 35.1553 1.14791 35.6859L9.22253 40.348C8.40749 44.7448 8.40749 49.2552 9.22253 53.652L1.14791 58.3141C0.219137 58.8447 -0.197863 59.9439 0.10541 60.9673C2.20936 67.714 5.79176 73.8164 10.4735 78.8954C11.1938 79.6725 12.369 79.862 13.2788 79.3313L21.3534 74.6693C24.7463 77.5878 28.6509 79.843 32.8778 81.3212V90.6454C32.8778 91.7067 33.617 92.6353 34.6595 92.8627C41.6158 94.4168 48.7427 94.341 55.3578 92.8627C56.4003 92.6353 57.1395 91.7067 57.1395 90.6454V81.3212C61.3474 79.8241 65.2521 77.5688 68.6639 74.6693L76.7385 79.3313C77.6673 79.862 78.8235 79.6914 79.5438 78.8954C84.2255 73.8354 87.808 67.733 89.9119 60.9673C90.1962 59.9249 89.7792 58.8258 88.8504 58.2951ZM44.9897 62.1423C36.6308 62.1423 29.8261 55.3387 29.8261 46.981C29.8261 38.6234 36.6308 31.8198 44.9897 31.8198C53.3486 31.8198 60.1533 38.6234 60.1533 46.981C60.1533 55.3387 53.3486 62.1423 44.9897 62.1423Z" fill="#797979"/>
</svg>
